<svg width="28" height="28" viewBox="0 0 28 28" fill="none" xmlns="http://www.w3.org/2000/svg">
<path d="M5.63111 12.1178C7.87111 16.52 11.48 20.1133 15.8822 22.3689L19.3044 18.9467C19.7244 18.5267 20.3467 18.3867 20.8911 18.5733C22.6333 19.1489 24.5156 19.46 26.4444 19.46C27.3 19.46 28 20.16 28 21.0156V26.4444C28 27.3 27.3 28 26.4444 28C11.8378 28 0 16.1622 0 1.55556C0 0.7 0.7 0 1.55556 0H7C7.85556 0 8.55556 0.7 8.55556 1.55556C8.55556 3.5 8.86667 5.36667 9.44222 7.10889C9.61333 7.65333 9.48889 8.26 9.05333 8.69556L5.63111 12.1178Z" fill="white"/>
</svg>
