<svg width="29" height="24" viewBox="0 0 29 24" fill="none" xmlns="http://www.w3.org/2000/svg">
<path d="M0.472 19.904C1.752 18.1547 2.904 16.4267 3.928 14.72C4.952 12.9707 5.54933 11.968 5.72 11.712C4.65333 11.7973 3.62933 11.328 2.648 10.304C1.70933 9.23733 1.24 8.04266 1.24 6.72C1.24 5.09866 1.816 3.712 2.968 2.56C4.12 1.36533 5.50667 0.767998 7.128 0.767998C8.87733 0.767998 10.2853 1.344 11.352 2.496C12.4613 3.648 13.016 5.03467 13.016 6.656C13.016 8.87466 12.4187 11.392 11.224 14.208C10.072 17.024 8.216 20.096 5.656 23.424L0.472 19.904ZM16.4095 19.904C17.6895 18.1547 18.8415 16.4267 19.8655 14.72C20.8895 12.9707 21.4868 11.968 21.6575 11.712C20.5908 11.7973 19.5668 11.328 18.5855 10.304C17.6468 9.23733 17.1775 8.04266 17.1775 6.72C17.1775 5.09866 17.7535 3.712 18.9055 2.56C20.0575 1.36533 21.4442 0.767998 23.0655 0.767998C24.8148 0.767998 26.2228 1.344 27.2895 2.496C28.3988 3.648 28.9535 5.03467 28.9535 6.656C28.9535 8.87466 28.3562 11.392 27.1615 14.208C26.0095 17.024 24.1535 20.096 21.5935 23.424L16.4095 19.904Z" fill="#FCBF49"/>
</svg>
