<svg width="24" height="24" viewBox="0 0 24 24" fill="none" xmlns="http://www.w3.org/2000/svg">
<path d="M6.74983 9.66667L11.9998 16.6667L17.2498 9.66667L6.74983 9.66667ZM23.6665 12C23.6665 5.56 18.4398 0.333335 11.9998 0.333335C5.55983 0.333336 0.333165 5.56 0.333166 12C0.333167 18.44 5.55983 23.6667 11.9998 23.6667C18.4398 23.6667 23.6665 18.44 23.6665 12ZM2.6665 12C2.6665 6.855 6.85483 2.66667 11.9998 2.66667C17.1448 2.66667 21.3332 6.855 21.3332 12C21.3332 17.145 17.1448 21.3333 11.9998 21.3333C6.85484 21.3333 2.6665 17.145 2.6665 12Z" fill="#FA3838"/>
</svg>
