<svg width="49" height="41" viewBox="0 0 49 41" fill="none" xmlns="http://www.w3.org/2000/svg">
<circle cx="23.5" cy="13.5" r="13.5" fill="#D9D9D9"/>
<path d="M3.52187 37.4883H1.13515V40H0.385155V34.3125H3.90859V34.9297H1.13515V36.875H3.52187V37.4883ZM8.08359 38.5156H5.70078L5.16562 40H4.39219L6.56406 34.3125H7.22031L9.39609 40H8.62656L8.08359 38.5156ZM5.92734 37.8984H7.86094L6.89219 35.2383L5.92734 37.8984ZM15.0984 38.1953C15.0281 38.7969 14.8055 39.2617 14.4305 39.5898C14.0581 39.9154 13.562 40.0781 12.9422 40.0781C12.2703 40.0781 11.7312 39.8372 11.325 39.3555C10.9214 38.8737 10.7195 38.2292 10.7195 37.4219V36.875C10.7195 36.3464 10.8133 35.8815 11.0008 35.4805C11.1909 35.0794 11.4591 34.7721 11.8055 34.5586C12.1518 34.3424 12.5529 34.2344 13.0086 34.2344C13.6128 34.2344 14.0971 34.4036 14.4617 34.7422C14.8263 35.0781 15.0385 35.5443 15.0984 36.1406H14.3445C14.2794 35.6875 14.1375 35.3594 13.9187 35.1562C13.7026 34.9531 13.3992 34.8516 13.0086 34.8516C12.5294 34.8516 12.1531 35.0286 11.8797 35.3828C11.6089 35.737 11.4734 36.2409 11.4734 36.8945V37.4453C11.4734 38.0625 11.6023 38.5534 11.8602 38.918C12.118 39.2826 12.4786 39.4648 12.9422 39.4648C13.3589 39.4648 13.6779 39.3711 13.8992 39.1836C14.1232 38.9935 14.2716 38.6641 14.3445 38.1953H15.0984ZM20.1406 37.3711H17.6758V39.3867H20.5391V40H16.9258V34.3125H20.5V34.9297H17.6758V36.7578H20.1406V37.3711ZM25.2602 40V34.3125H27.1195C27.7367 34.3125 28.2003 34.4401 28.5102 34.6953C28.8227 34.9505 28.9789 35.3281 28.9789 35.8281C28.9789 36.0938 28.9034 36.3294 28.7523 36.5352C28.6013 36.7383 28.3956 36.8958 28.1352 37.0078C28.4424 37.0938 28.6846 37.2578 28.8617 37.5C29.0414 37.7396 29.1312 38.026 29.1312 38.3594C29.1312 38.8698 28.9659 39.2708 28.6352 39.5625C28.3044 39.8542 27.837 40 27.2328 40H25.2602ZM26.0102 37.3398V39.3867H27.2484C27.5974 39.3867 27.8721 39.2969 28.0727 39.1172C28.2758 38.9349 28.3773 38.6849 28.3773 38.3672C28.3773 37.6823 28.0049 37.3398 27.2602 37.3398H26.0102ZM26.0102 36.7383H27.143C27.4711 36.7383 27.7328 36.6562 27.9281 36.4922C28.126 36.3281 28.225 36.1055 28.225 35.8242C28.225 35.5117 28.1339 35.2852 27.9516 35.1445C27.7693 35.0013 27.4919 34.9297 27.1195 34.9297H26.0102V36.7383ZM35.4195 37.3398C35.4195 37.8971 35.3258 38.3841 35.1383 38.8008C34.9508 39.2148 34.6852 39.5312 34.3414 39.75C33.9977 39.9688 33.5966 40.0781 33.1383 40.0781C32.6904 40.0781 32.2932 39.9688 31.9469 39.75C31.6005 39.5286 31.331 39.2148 31.1383 38.8086C30.9482 38.3997 30.8505 37.9271 30.8453 37.3906V36.9805C30.8453 36.4336 30.9404 35.9505 31.1305 35.5312C31.3206 35.112 31.5888 34.7917 31.9352 34.5703C32.2841 34.3464 32.6825 34.2344 33.1305 34.2344C33.5862 34.2344 33.9872 34.3451 34.3336 34.5664C34.6825 34.7852 34.9508 35.1042 35.1383 35.5234C35.3258 35.9401 35.4195 36.4258 35.4195 36.9805V37.3398ZM34.6734 36.9727C34.6734 36.2982 34.538 35.7812 34.2672 35.4219C33.9964 35.0599 33.6174 34.8789 33.1305 34.8789C32.6565 34.8789 32.2828 35.0599 32.0094 35.4219C31.7385 35.7812 31.5992 36.2812 31.5914 36.9219V37.3398C31.5914 37.9935 31.7281 38.5078 32.0016 38.8828C32.2776 39.2552 32.6565 39.4414 33.1383 39.4414C33.6227 39.4414 33.9977 39.2656 34.2633 38.9141C34.5289 38.5599 34.6656 38.0534 34.6734 37.3945V36.9727ZM41.7195 37.3398C41.7195 37.8971 41.6258 38.3841 41.4383 38.8008C41.2508 39.2148 40.9852 39.5312 40.6414 39.75C40.2977 39.9688 39.8966 40.0781 39.4383 40.0781C38.9904 40.0781 38.5932 39.9688 38.2469 39.75C37.9005 39.5286 37.631 39.2148 37.4383 38.8086C37.2482 38.3997 37.1505 37.9271 37.1453 37.3906V36.9805C37.1453 36.4336 37.2404 35.9505 37.4305 35.5312C37.6206 35.112 37.8888 34.7917 38.2352 34.5703C38.5841 34.3464 38.9825 34.2344 39.4305 34.2344C39.8862 34.2344 40.2872 34.3451 40.6336 34.5664C40.9825 34.7852 41.2508 35.1042 41.4383 35.5234C41.6258 35.9401 41.7195 36.4258 41.7195 36.9805V37.3398ZM40.9734 36.9727C40.9734 36.2982 40.838 35.7812 40.5672 35.4219C40.2964 35.0599 39.9174 34.8789 39.4305 34.8789C38.9565 34.8789 38.5828 35.0599 38.3094 35.4219C38.0385 35.7812 37.8992 36.2812 37.8914 36.9219V37.3398C37.8914 37.9935 38.0281 38.5078 38.3016 38.8828C38.5776 39.2552 38.9565 39.4414 39.4383 39.4414C39.9227 39.4414 40.2977 39.2656 40.5633 38.9141C40.8289 38.5599 40.9656 38.0534 40.9734 37.3945V36.9727ZM45.0898 37.3555L44.3945 38.0781V40H43.6445V34.3125H44.3945V37.125L46.9219 34.3125H47.8281L45.5898 36.8242L48.0039 40H47.1055L45.0898 37.3555Z" fill="#F5F5F5"/>
<path d="M19.06 6.76H28.3V9.56L22.1 9.54V12.6H27.62V15.18H22.1V21H19.06V6.76Z" fill="#1C1C1C"/>
</svg>
