<svg width="35" height="41" viewBox="0 0 35 41" fill="none" xmlns="http://www.w3.org/2000/svg">
<circle cx="16.5" cy="13.5" r="13.5" fill="#D9D9D9"/>
<path d="M4.70781 39.2539C4.5151 39.5299 4.24557 39.737 3.89922 39.875C3.55547 40.0104 3.15443 40.0781 2.69609 40.0781C2.23255 40.0781 1.82109 39.9701 1.46172 39.7539C1.10234 39.5352 0.823699 39.2253 0.625782 38.8242C0.43047 38.4232 0.330209 37.9583 0.325001 37.4297V36.9336C0.325001 36.0768 0.52422 35.4128 0.922657 34.9414C1.3237 34.4701 1.8862 34.2344 2.61016 34.2344C3.20391 34.2344 3.68177 34.3867 4.04375 34.6914C4.40573 34.9935 4.62708 35.4232 4.70781 35.9805H3.95781C3.81719 35.2279 3.36927 34.8516 2.61406 34.8516C2.11146 34.8516 1.72995 35.0286 1.46953 35.3828C1.21172 35.7344 1.08151 36.2448 1.07891 36.9141V37.3789C1.07891 38.0169 1.22474 38.5247 1.51641 38.9023C1.80807 39.2773 2.2026 39.4648 2.7 39.4648C2.98125 39.4648 3.22734 39.4336 3.43828 39.3711C3.64922 39.3086 3.8237 39.2031 3.96172 39.0547V37.7773H2.64531V37.168H4.70781V39.2539ZM7.56641 40H6.81641V34.3125H7.56641V40ZM13.5539 34.9297H11.7258V40H10.9797V34.9297H9.15547V34.3125H13.5539V34.9297ZM22.5563 40H21.8023V37.3711H18.9352V40H18.1852V34.3125H18.9352V36.7578H21.8023V34.3125H22.5563V40ZM28.6922 34.3125V38.1797C28.6896 38.7161 28.5203 39.1549 28.1844 39.4961C27.851 39.8372 27.3979 40.0286 26.825 40.0703L26.6258 40.0781C26.0034 40.0781 25.5073 39.9102 25.1375 39.5742C24.7677 39.2383 24.5802 38.776 24.575 38.1875V34.3125H25.3172V38.1641C25.3172 38.5755 25.4305 38.8958 25.657 39.125C25.8836 39.3516 26.2065 39.4648 26.6258 39.4648C27.0503 39.4648 27.3745 39.3516 27.5984 39.125C27.825 38.8984 27.9383 38.5794 27.9383 38.168V34.3125H28.6922ZM30.6758 40V34.3125H32.5352C33.1523 34.3125 33.6159 34.4401 33.9258 34.6953C34.2383 34.9505 34.3945 35.3281 34.3945 35.8281C34.3945 36.0938 34.319 36.3294 34.168 36.5352C34.0169 36.7383 33.8112 36.8958 33.5508 37.0078C33.8581 37.0938 34.1003 37.2578 34.2773 37.5C34.457 37.7396 34.5469 38.026 34.5469 38.3594C34.5469 38.8698 34.3815 39.2708 34.0508 39.5625C33.7201 39.8542 33.2526 40 32.6484 40H30.6758ZM31.4258 37.3398V39.3867H32.6641C33.013 39.3867 33.2878 39.2969 33.4883 39.1172C33.6914 38.9349 33.793 38.6849 33.793 38.3672C33.793 37.6823 33.4206 37.3398 32.6758 37.3398H31.4258ZM31.4258 36.7383H32.5586C32.8867 36.7383 33.1484 36.6562 33.3438 36.4922C33.5417 36.3281 33.6406 36.1055 33.6406 35.8242C33.6406 35.5117 33.5495 35.2852 33.3672 35.1445C33.1849 35.0013 32.9076 34.9297 32.5352 34.9297H31.4258V36.7383Z" fill="#F5F5F5"/>
<path d="M23.74 13.02V13.86C23.74 15.2067 23.42 16.4467 22.78 17.58C22.1533 18.7133 21.3 19.6133 20.22 20.28C19.14 20.9467 17.9667 21.28 16.7 21.28C15.4333 21.28 14.26 20.9467 13.18 20.28C12.1 19.6133 11.24 18.7133 10.6 17.58C9.97333 16.4467 9.66 15.2067 9.66 13.86C9.66 12.5267 9.97333 11.2933 10.6 10.16C11.24 9.02667 12.1 8.12667 13.18 7.46C14.26 6.79333 15.4333 6.46 16.7 6.46C18.14 6.46 19.4467 6.88 20.62 7.72C21.7933 8.56 22.6467 9.66 23.18 11.02L20.72 11.88C20.3733 11.1067 19.8533 10.4867 19.16 10.02C18.48 9.55333 17.7267 9.32 16.9 9.32C16.14 9.32 15.44 9.52667 14.8 9.94C14.16 10.34 13.6467 10.8867 13.26 11.58C12.8867 12.2733 12.7 13.0333 12.7 13.86C12.7 14.6867 12.8867 15.4533 13.26 16.16C13.6333 16.8533 14.14 17.4067 14.78 17.82C15.4333 18.22 16.14 18.42 16.9 18.42C17.7933 18.42 18.6 18.14 19.32 17.58C20.0533 17.02 20.56 16.3067 20.84 15.44H15.94V13.02H23.74Z" fill="#1C1C1C"/>
</svg>
