<svg width="51" height="41" viewBox="0 0 51 41" fill="none" xmlns="http://www.w3.org/2000/svg">
<circle cx="24.5" cy="13.5" r="13.5" fill="#D9D9D9"/>
<path d="M1.21328 40H0.46328V34.3125H1.21328V40ZM7.75937 40H7.00547L4.14219 35.6172V40H3.38828V34.3125H4.14219L7.01328 38.7148V34.3125H7.75937V40ZM11.5672 37.4648C10.924 37.2799 10.4552 37.0534 10.1609 36.7852C9.86927 36.5143 9.72344 36.181 9.72344 35.7852C9.72344 35.3372 9.90182 34.9674 10.2586 34.6758C10.618 34.3815 11.0841 34.2344 11.657 34.2344C12.0477 34.2344 12.3953 34.3099 12.7 34.4609C13.0073 34.612 13.2443 34.8203 13.4109 35.0859C13.5802 35.3516 13.6648 35.6419 13.6648 35.957H12.9109C12.9109 35.6133 12.8016 35.3438 12.5828 35.1484C12.3641 34.9505 12.0555 34.8516 11.657 34.8516C11.2872 34.8516 10.9982 34.9336 10.7898 35.0977C10.5841 35.2591 10.4812 35.4844 10.4812 35.7734C10.4812 36.0052 10.5789 36.2018 10.7742 36.3633C10.9721 36.5221 11.3068 36.668 11.7781 36.8008C12.2521 36.9336 12.6219 37.0807 12.8875 37.2422C13.1557 37.401 13.3536 37.5872 13.4812 37.8008C13.6115 38.0143 13.6766 38.2656 13.6766 38.5547C13.6766 39.0156 13.4969 39.3854 13.1375 39.6641C12.7781 39.9401 12.2977 40.0781 11.6961 40.0781C11.3055 40.0781 10.9409 40.0039 10.6023 39.8555C10.2638 39.7044 10.0021 39.4987 9.81719 39.2383C9.63489 38.9779 9.54375 38.6823 9.54375 38.3516H10.2977C10.2977 38.6953 10.424 38.9674 10.6766 39.168C10.9318 39.3659 11.2716 39.4648 11.6961 39.4648C12.0919 39.4648 12.3953 39.3841 12.6062 39.2227C12.8172 39.0612 12.9227 38.8411 12.9227 38.5625C12.9227 38.2839 12.825 38.069 12.6297 37.918C12.4344 37.7643 12.0802 37.6133 11.5672 37.4648ZM19.3711 34.9297H17.543V40H16.7969V34.9297H14.9727V34.3125H19.3711V34.9297ZM23.843 38.5156H21.4602L20.925 40H20.1516L22.3234 34.3125H22.9797L25.1555 40H24.3859L23.843 38.5156ZM21.6867 37.8984H23.6203L22.6516 35.2383L21.6867 37.8984ZM30.8734 39.2539C30.6807 39.5299 30.4112 39.737 30.0648 39.875C29.7211 40.0104 29.3201 40.0781 28.8617 40.0781C28.3982 40.0781 27.9867 39.9701 27.6273 39.7539C27.268 39.5352 26.9893 39.2253 26.7914 38.8242C26.5961 38.4232 26.4958 37.9583 26.4906 37.4297V36.9336C26.4906 36.0768 26.6898 35.4128 27.0883 34.9414C27.4893 34.4701 28.0518 34.2344 28.7758 34.2344C29.3695 34.2344 29.8474 34.3867 30.2094 34.6914C30.5714 34.9935 30.7927 35.4232 30.8734 35.9805H30.1234C29.9828 35.2279 29.5349 34.8516 28.7797 34.8516C28.2771 34.8516 27.8956 35.0286 27.6352 35.3828C27.3773 35.7344 27.2471 36.2448 27.2445 36.9141V37.3789C27.2445 38.0169 27.3904 38.5247 27.682 38.9023C27.9737 39.2773 28.3682 39.4648 28.8656 39.4648C29.1469 39.4648 29.393 39.4336 29.6039 39.3711C29.8148 39.3086 29.9893 39.2031 30.1273 39.0547V37.7773H28.8109V37.168H30.8734V39.2539ZM35.0133 37.6992H33.6773V40H32.9234V34.3125H34.8062C35.4469 34.3125 35.9391 34.4583 36.2828 34.75C36.6292 35.0417 36.8023 35.4661 36.8023 36.0234C36.8023 36.3776 36.706 36.6862 36.5133 36.9492C36.3232 37.2122 36.0575 37.4089 35.7164 37.5391L37.0523 39.9531V40H36.2477L35.0133 37.6992ZM33.6773 37.0859H34.8297C35.2021 37.0859 35.4977 36.9896 35.7164 36.7969C35.9378 36.6042 36.0484 36.3464 36.0484 36.0234C36.0484 35.6719 35.943 35.4023 35.732 35.2148C35.5237 35.0273 35.2216 34.9323 34.8258 34.9297H33.6773V37.0859ZM41.7977 38.5156H39.4148L38.8797 40H38.1062L40.2781 34.3125H40.9344L43.1102 40H42.3406L41.7977 38.5156ZM39.6414 37.8984H41.575L40.6062 35.2383L39.6414 37.8984ZM45.6445 34.3125L47.5039 38.9531L49.3633 34.3125H50.3359V40H49.5859V37.7852L49.6562 35.3945L47.7891 40H47.2148L45.3516 35.4062L45.4258 37.7852V40H44.6758V34.3125H45.6445Z" fill="#F5F5F5"/>
<path d="M23.06 21V6.76H26.1V21H23.06Z" fill="#1C1C1C"/>
</svg>
