<svg width="28" height="28" viewBox="0 0 28 28" fill="none" xmlns="http://www.w3.org/2000/svg">
<path fill-rule="evenodd" clip-rule="evenodd" d="M3.11111 0H24.8889C26.6 0 28 1.4 28 3.11111V24.8889C28 26.6 26.6 28 24.8889 28H3.11111C1.4 28 0 26.6 0 24.8889V3.11111C0 1.4 1.4 0 3.11111 0ZM9.824 5.488H6.08V8.296H9.824V5.488ZM9.752 9.616H6.128V22H9.752V9.616ZM21.0583 10.096C20.2743 9.584 19.3943 9.328 18.4183 9.328C17.6982 9.328 17.0422 9.488 16.4503 9.808C15.8743 10.112 15.3783 10.544 14.9623 11.104V9.616H11.9382V22H15.5863V15.088C15.5863 14.496 15.8022 13.984 16.2343 13.552C16.6663 13.12 17.1702 12.904 17.7463 12.904C18.3703 12.904 18.8903 13.12 19.3063 13.552C19.7383 13.984 19.9543 14.496 19.9543 15.088V22H23.6023V14.992C23.6023 13.968 23.3783 13.024 22.9303 12.16C22.4823 11.296 21.8582 10.608 21.0583 10.096Z" fill="white"/>
</svg>
