<svg width="28" height="40" viewBox="0 0 28 40" fill="none" xmlns="http://www.w3.org/2000/svg">
<path d="M14 0C6.26 0 0 6.26 0 14C0 17.48 1 20.74 2.82 23.68C4.72 26.76 7.22 29.4 9.14 32.48C10.08 33.98 10.76 35.38 11.48 37C12 38.1 12.42 40 14 40C15.58 40 16 38.1 16.5 37C17.24 35.38 17.9 33.98 18.84 32.48C20.76 29.42 23.26 26.78 25.16 23.68C27 20.74 28 17.48 28 14C28 6.26 21.74 0 14 0ZM14 19.5C11.24 19.5 9 17.26 9 14.5C9 11.74 11.24 9.5 14 9.5C16.76 9.5 19 11.74 19 14.5C19 17.26 16.76 19.5 14 19.5Z" fill="white"/>
</svg>
