<svg width="47" height="41" viewBox="0 0 47 41" fill="none" xmlns="http://www.w3.org/2000/svg">
<circle cx="23.5" cy="13.5" r="13.5" fill="#D9D9D9"/>
<path d="M5.23203 34.9297H3.40391V40H2.65781V34.9297H0.833595V34.3125H5.23203V34.9297ZM10.0906 37.3711H7.62578V39.3867H10.4891V40H6.87578V34.3125H10.45V34.9297H7.62578V36.7578H10.0906V37.3711ZM12.9766 39.3867H15.6719V40H12.2227V34.3125H12.9766V39.3867ZM20.5422 37.3711H18.0773V39.3867H20.9406V40H17.3273V34.3125H20.9016V34.9297H18.0773V36.7578H20.5422V37.3711ZM26.8734 39.2539C26.6807 39.5299 26.4112 39.737 26.0648 39.875C25.7211 40.0104 25.3201 40.0781 24.8617 40.0781C24.3982 40.0781 23.9867 39.9701 23.6273 39.7539C23.268 39.5352 22.9893 39.2253 22.7914 38.8242C22.5961 38.4232 22.4958 37.9583 22.4906 37.4297V36.9336C22.4906 36.0768 22.6898 35.4128 23.0883 34.9414C23.4893 34.4701 24.0518 34.2344 24.7758 34.2344C25.3695 34.2344 25.8474 34.3867 26.2094 34.6914C26.5714 34.9935 26.7927 35.4232 26.8734 35.9805H26.1234C25.9828 35.2279 25.5349 34.8516 24.7797 34.8516C24.2771 34.8516 23.8956 35.0286 23.6352 35.3828C23.3773 35.7344 23.2471 36.2448 23.2445 36.9141V37.3789C23.2445 38.0169 23.3904 38.5247 23.682 38.9023C23.9737 39.2773 24.3682 39.4648 24.8656 39.4648C25.1469 39.4648 25.393 39.4336 25.6039 39.3711C25.8148 39.3086 25.9893 39.2031 26.1273 39.0547V37.7773H24.8109V37.168H26.8734V39.2539ZM31.0133 37.6992H29.6773V40H28.9234V34.3125H30.8063C31.4469 34.3125 31.9391 34.4583 32.2828 34.75C32.6292 35.0417 32.8023 35.4661 32.8023 36.0234C32.8023 36.3776 32.706 36.6862 32.5133 36.9492C32.3232 37.2122 32.0576 37.4089 31.7164 37.5391L33.0523 39.9531V40H32.2477L31.0133 37.6992ZM29.6773 37.0859H30.8297C31.2021 37.0859 31.4977 36.9896 31.7164 36.7969C31.9378 36.6042 32.0484 36.3464 32.0484 36.0234C32.0484 35.6719 31.943 35.4023 31.732 35.2148C31.5237 35.0273 31.2216 34.9323 30.8258 34.9297H29.6773V37.0859ZM37.7977 38.5156H35.4148L34.8797 40H34.1063L36.2781 34.3125H36.9344L39.1102 40H38.3406L37.7977 38.5156ZM35.6414 37.8984H37.575L36.6063 35.2383L35.6414 37.8984ZM41.6445 34.3125L43.5039 38.9531L45.3633 34.3125H46.3359V40H45.5859V37.7852L45.6562 35.3945L43.7891 40H43.2148L41.3516 35.4062L41.4258 37.7852V40H40.6758V34.3125H41.6445Z" fill="#F5F5F5"/>
<path d="M21.9 9.54H18.22L18.2 6.76H28.64V9.54H24.92V21H21.9V9.54Z" fill="#1C1C1C"/>
</svg>
