<svg width="24" height="24" viewBox="0 0 24 24" fill="none" xmlns="http://www.w3.org/2000/svg">
<path d="M17.2502 14.3333L12.0002 7.33333L6.75016 14.3333L17.2502 14.3333ZM0.333496 12C0.333496 18.44 5.56016 23.6667 12.0002 23.6667C18.4402 23.6667 23.6668 18.44 23.6668 12C23.6668 5.56 18.4402 0.333331 12.0002 0.333332C5.56016 0.333332 0.333495 5.56 0.333496 12ZM21.3335 12C21.3335 17.145 17.1452 21.3333 12.0002 21.3333C6.85516 21.3333 2.66683 17.145 2.66683 12C2.66683 6.855 6.85516 2.66667 12.0002 2.66667C17.1452 2.66667 21.3335 6.855 21.3335 12Z" fill="#FA3838"/>
</svg>
